<svg id="Layer_1" data-name="Layer 1" xmlns="http://www.w3.org/2000/svg" viewBox="0 0 481.27 108.34"><title>CorelDraw logo - Brandlogos.net</title><g id="Lettering"><path d="M144.92,438.53a12.61,12.61,0,0,1-6.45-1.64,11.37,11.37,0,0,1-4.42-4.72,15.88,15.88,0,0,1-1.6-7.42,15.45,15.45,0,0,1,1.65-7.38,11.73,11.73,0,0,1,4.51-4.74,12.79,12.79,0,0,1,6.53-1.66,10.27,10.27,0,0,1,4.83,1,12.34,12.34,0,0,1,3.14,2.25l-1.94,2.19a10,10,0,0,0-2.44-1.78,7.51,7.51,0,0,0-3.5-.73,8.82,8.82,0,0,0-4.85,1.32,8.57,8.57,0,0,0-3.18,3.71,13.44,13.44,0,0,0-1.12,5.71,12.3,12.3,0,0,0,2.38,8,8.26,8.26,0,0,0,6.81,2.94,9.35,9.35,0,0,0,2.83-.42,5.65,5.65,0,0,0,2.15-1.16v-6.93h-5.86v-2.79h9.06v11.19a9.92,9.92,0,0,1-3.52,2.21A13.85,13.85,0,0,1,144.92,438.53Z" transform="translate(-128.73 -330.2)" style="fill:#333"/><path d="M160,438V411.45h8.64a16.09,16.09,0,0,1,5,.71,6.82,6.82,0,0,1,3.44,2.35,8.28,8.28,0,0,1-.44,9.37,8.63,8.63,0,0,1-4.55,2.57l7,11.59h-4l-6.66-11.23h-5V438H160Zm3.5-14h4.64a8.26,8.26,0,0,0,5-1.28,4.5,4.5,0,0,0,1.73-3.87,4,4,0,0,0-1.73-3.69,9.64,9.64,0,0,0-5-1.05h-4.64Z" transform="translate(-128.73 -330.2)" style="fill:#333"/><path d="M179.9,438l9.36-26.59h4L202.58,438h-3.75l-2.61-8.11H186.14L183.49,438Zm8.43-14.88L187,427.22h8.3L194,423.17c-.51-1.49-1-3-1.43-4.44s-.9-3-1.35-4.52h-.17c-.42,1.54-.86,3-1.31,4.52S188.83,421.68,188.33,423.17Z" transform="translate(-128.73 -330.2)" style="fill:#333"/><path d="M205.28,438V411.45h7.88a18.24,18.24,0,0,1,5.44.73,7.08,7.08,0,0,1,3.63,2.45,7.51,7.51,0,0,1,1.31,4.64,7.12,7.12,0,0,1-2.83,6.2,12.35,12.35,0,0,1-7.37,2h-4.56V438Zm3.5-13.29h4.13a8.93,8.93,0,0,0,5.38-1.32,4.86,4.86,0,0,0,1.75-4.16q0-2.88-1.83-4a10.69,10.69,0,0,0-5.46-1.11h-4Z" transform="translate(-128.73 -330.2)" style="fill:#333"/><path d="M227.84,438V411.45h3.5V422.6H244.2V411.45h3.54V438H244.2V425.52H231.34V438Z" transform="translate(-128.73 -330.2)" style="fill:#333"/><path d="M255.17,438V411.45h3.5V438Z" transform="translate(-128.73 -330.2)" style="fill:#333"/><path d="M275.34,438.53a11.73,11.73,0,0,1-6.18-1.64,11.44,11.44,0,0,1-4.3-4.72,16.06,16.06,0,0,1-1.58-7.42,15.8,15.8,0,0,1,1.6-7.38,11.62,11.62,0,0,1,4.39-4.74,12,12,0,0,1,6.28-1.66,9.65,9.65,0,0,1,4.47,1,10.78,10.78,0,0,1,3.12,2.29l-1.9,2.19a9,9,0,0,0-2.49-1.83,7,7,0,0,0-3.16-.69,8,8,0,0,0-4.58,1.32,8.57,8.57,0,0,0-3,3.71,13.92,13.92,0,0,0-1.07,5.71,14.54,14.54,0,0,0,1.05,5.78,8.64,8.64,0,0,0,3,3.79,7.71,7.71,0,0,0,4.53,1.34,7.54,7.54,0,0,0,3.54-.81,10.74,10.74,0,0,0,2.87-2.19l1.94,2.11a12.24,12.24,0,0,1-3.71,2.84A10.8,10.8,0,0,1,275.34,438.53Z" transform="translate(-128.73 -330.2)" style="fill:#333"/><path d="M295.62,438.53a13.43,13.43,0,0,1-5.4-1.07,14,14,0,0,1-4.3-2.86l2.11-2.35a11.52,11.52,0,0,0,3.48,2.41,9.87,9.87,0,0,0,4.15.91,6.74,6.74,0,0,0,4.26-1.2,3.81,3.81,0,0,0,1.52-3.15,3.57,3.57,0,0,0-.61-2.19,5.08,5.08,0,0,0-1.65-1.38c-.69-.38-1.47-.76-2.34-1.13l-4-1.66a14.81,14.81,0,0,1-2.59-1.38,7.46,7.46,0,0,1-2.15-2.19,5.93,5.93,0,0,1-.86-3.28,6.18,6.18,0,0,1,1.12-3.63,7.49,7.49,0,0,1,3.1-2.51A10.59,10.59,0,0,1,296,411a11.51,11.51,0,0,1,4.6.91,11.64,11.64,0,0,1,3.58,2.37l-1.9,2.19a9.83,9.83,0,0,0-2.8-1.85,8.66,8.66,0,0,0-3.48-.67,6.09,6.09,0,0,0-3.73,1.05,3.35,3.35,0,0,0-1.41,2.84,3.11,3.11,0,0,0,.7,2.09,5.28,5.28,0,0,0,1.75,1.36q1.05.53,2.15,1l3.92,1.62a14,14,0,0,1,2.89,1.56,7,7,0,0,1,2,2.23A6.51,6.51,0,0,1,305,431a6.83,6.83,0,0,1-1.14,3.83,7.83,7.83,0,0,1-3.25,2.73A11.48,11.48,0,0,1,295.62,438.53Z" transform="translate(-128.73 -330.2)" style="fill:#333"/><path d="M326.41,438.53a13.43,13.43,0,0,1-5.4-1.07,14,14,0,0,1-4.3-2.86l2.11-2.35a11.52,11.52,0,0,0,3.48,2.41,9.87,9.87,0,0,0,4.15.91,6.74,6.74,0,0,0,4.26-1.2,3.81,3.81,0,0,0,1.52-3.15,3.57,3.57,0,0,0-.61-2.19,5.08,5.08,0,0,0-1.65-1.38c-.69-.38-1.47-.76-2.34-1.13l-4-1.66a14.81,14.81,0,0,1-2.59-1.38,7.46,7.46,0,0,1-2.15-2.19,5.93,5.93,0,0,1-.86-3.28,6.18,6.18,0,0,1,1.12-3.63,7.49,7.49,0,0,1,3.1-2.51,10.59,10.59,0,0,1,4.47-.91,11.51,11.51,0,0,1,4.6.91,11.64,11.64,0,0,1,3.58,2.37l-1.9,2.19a9.83,9.83,0,0,0-2.8-1.85,8.66,8.66,0,0,0-3.48-.67A6.09,6.09,0,0,0,323,415a3.35,3.35,0,0,0-1.41,2.84,3.11,3.11,0,0,0,.7,2.09,5.28,5.28,0,0,0,1.75,1.36q1.05.53,2.15,1l3.92,1.62a14,14,0,0,1,2.89,1.56,7,7,0,0,1,2,2.23,6.51,6.51,0,0,1,.76,3.3,6.83,6.83,0,0,1-1.14,3.83,7.83,7.83,0,0,1-3.25,2.73A11.48,11.48,0,0,1,326.41,438.53Z" transform="translate(-128.73 -330.2)" style="fill:#333"/><path d="M349.7,438.53a11.5,11.5,0,0,1-5.08-1.09,7.87,7.87,0,0,1-3.56-3.61,14.79,14.79,0,0,1-1.31-6.77v-15.6h3.5v15.69a12.1,12.1,0,0,0,.86,5,5.4,5.4,0,0,0,2.32,2.61,6.88,6.88,0,0,0,3.27.77,7.05,7.05,0,0,0,3.33-.77,5.38,5.38,0,0,0,2.34-2.61,12.1,12.1,0,0,0,.86-5V411.46h3.37v15.6a14.73,14.73,0,0,1-1.31,6.77,7.92,7.92,0,0,1-3.54,3.61A11.37,11.37,0,0,1,349.7,438.53Z" transform="translate(-128.73 -330.2)" style="fill:#333"/><path d="M365.75,438V411.45h3.5V438Z" transform="translate(-128.73 -330.2)" style="fill:#333"/><path d="M381.22,438V414.29h-8.35v-2.84h20.24v2.84h-8.35V438Z" transform="translate(-128.73 -330.2)" style="fill:#333"/><path d="M398.07,438V411.45H414v2.84H401.58v8.35h10.5v2.88h-10.5v9.65h12.85V438Z" transform="translate(-128.73 -330.2)" style="fill:#333"/><path d="M153.71,400.79a25,25,0,0,1-12.61-3.24,23.25,23.25,0,0,1-9-9.5,36,36,0,0,1,.08-30.47,24.32,24.32,0,0,1,9.19-9.71A24.73,24.73,0,0,1,154,344.5a20.23,20.23,0,0,1,9.32,2.08,24.74,24.74,0,0,1,6.69,4.82l-5.25,6.23a17.61,17.61,0,0,0-4.7-3.44,12.81,12.81,0,0,0-5.8-1.29,14,14,0,0,0-8,2.36,15.72,15.72,0,0,0-5.5,6.77,25.42,25.42,0,0,0-2,10.54q0,9.3,4.15,14.57A13.4,13.4,0,0,0,154,392.4a13.82,13.82,0,0,0,6.61-1.53,20.59,20.59,0,0,0,5.25-4l5.25,6.06a23.75,23.75,0,0,1-7.75,5.86A22.75,22.75,0,0,1,153.71,400.79Z" transform="translate(-128.73 -330.2)" style="fill:#333"/><path d="M193.49,400.79a19.36,19.36,0,0,1-16.94-9.84,25.23,25.23,0,0,1,0-23.08,19.52,19.52,0,0,1,34,0,25.23,25.23,0,0,1,0,23.08,19.36,19.36,0,0,1-17,9.84Zm0-7.8a8.33,8.33,0,0,0,7.2-3.74q2.62-3.74,2.63-9.8t-2.63-9.88a8.33,8.33,0,0,0-7.2-3.74,8.22,8.22,0,0,0-7.15,3.74q-2.59,3.74-2.58,9.88t2.58,9.8A8.22,8.22,0,0,0,193.49,393Z" transform="translate(-128.73 -330.2)" style="fill:#333"/><path d="M219,399.79V359h7.89l.66,7.22h.33a17.1,17.1,0,0,1,5.23-6.1,11.51,11.51,0,0,1,11-1.28l-1.66,8.3a18.23,18.23,0,0,0-2-.5,13.15,13.15,0,0,0-2.24-.17,8.89,8.89,0,0,0-5.06,1.87q-2.66,1.87-4.57,6.51v24.91H219Z" transform="translate(-128.73 -330.2)" style="fill:#333"/><path d="M264.27,400.79a20.67,20.67,0,0,1-10.21-2.53,18.31,18.31,0,0,1-7.22-7.31,23.29,23.29,0,0,1-2.66-11.5,23,23,0,0,1,2.7-11.46,19.43,19.43,0,0,1,7-7.39,17.42,17.42,0,0,1,9-2.57,16.63,16.63,0,0,1,9.3,2.45,15.19,15.19,0,0,1,5.65,6.81,25,25,0,0,1,1.91,10.09,20.37,20.37,0,0,1-.42,4.65h-25.9a13.13,13.13,0,0,0,3.9,8.39,11.53,11.53,0,0,0,8.14,3,15,15,0,0,0,4.94-.79,21.52,21.52,0,0,0,4.52-2.2l3.24,6a29.31,29.31,0,0,1-6.48,3.15A22.44,22.44,0,0,1,264.27,400.79ZM253.4,375.55h18.1a11.91,11.91,0,0,0-2.08-7.43,7.37,7.37,0,0,0-6.23-2.7,9,9,0,0,0-6.35,2.62A12.16,12.16,0,0,0,253.4,375.55Z" transform="translate(-128.73 -330.2)" style="fill:#333"/><path d="M296,400.79q-5.06,0-7.18-3.07t-2.11-8.39V345.49h9.55v44.34a3.54,3.54,0,0,0,.66,2.45,1.92,1.92,0,0,0,1.41.71,4.18,4.18,0,0,0,.62,0l.87-.13L301,400a12.12,12.12,0,0,1-2.12.58A15.47,15.47,0,0,1,296,400.79Z" transform="translate(-128.73 -330.2)" style="fill:#333"/><path d="M308.68,399.79v-54.3h14.53q12.45,0,19.43,6.72t7,20.17q0,13.53-6.89,20.46t-19,6.93h-15Zm9.63-7.8h4.23q8.22,0,12.7-4.78t4.48-14.82q0-10-4.48-14.53t-12.7-4.57h-4.23Z" transform="translate(-128.73 -330.2)" style="fill:#333"/><path d="M358.53,399.79v-54.3h18.35A32.35,32.35,0,0,1,387.06,347a14.14,14.14,0,0,1,7.14,5q2.62,3.53,2.62,9.59,0,6.23-2.95,10a16.21,16.21,0,0,1-7.84,5.48l13,22.67H388.18l-11.71-21.25h-8.3v21.25Zm9.63-28.89h7.72q5.56,0,8.51-2.36a8.37,8.37,0,0,0,2.95-6.93q0-4.65-2.95-6.51t-8.51-1.87h-7.72Z" transform="translate(-128.73 -330.2)" style="fill:#333"/><path d="M401.24,399.79l17.68-54.3h11.29l17.68,54.3H437.77l-4.23-14.7H415.27L411,399.79Zm18.18-28.89-1.91,6.64h13.87l-1.91-6.64q-1.33-4.31-2.53-8.88t-2.36-9h-.33q-1.08,4.57-2.28,9.09T419.43,370.9Z" transform="translate(-128.73 -330.2)" style="fill:#333"/><path d="M454.62,399.79l-10.79-54.3h9.88l4.73,27.4q.67,4.31,1.37,8.67t1.28,8.67h.33q.92-4.31,1.78-8.67t1.79-8.67l6.64-27.4H480l6.64,27.4q.92,4.23,1.83,8.59t1.83,8.76h.33q.66-4.4,1.33-8.72t1.25-8.63l4.73-27.4h9.22l-10.38,54.3h-12l-6.72-28.56q-.67-3.16-1.29-6.31c-.42-2.1-.79-4.18-1.12-6.23h-.33q-.59,3.07-1.21,6.23t-1.29,6.31l-6.56,28.56Z" transform="translate(-128.73 -330.2)" style="fill:#333"/></g><g id="Balloon"><polygon points="448.11 107.99 435.88 107.99 434.36 98.82 449.64 98.82 448.11 107.99" style="fill:#61a706"/><path d="M593.11,335C605,342.88,608,354.45,606.72,364.9,603.95,392.54,575.31,424,577.6,422c6.38-5.42,27.84-30.92,31.87-54.81S593.11,335,593.11,335Z" transform="translate(-128.73 -330.2)" style="fill:#979797"/><path d="M534,364.9c-1.33-10.44,1.77-22,13.61-29.91,0,0-20.4,8.27-16.37,32.17S556.8,416.55,563.16,422C565.45,424,536.82,392.54,534,364.9Z" transform="translate(-128.73 -330.2)" style="fill:#979797"/><path d="M557.49,369.22c.85,14.56,4.62,33.83,11.07,54h3.19c6.44-20.15,10.21-39.42,11.06-54,1.23-21-3.14-34.53-10.12-38.26a5.12,5.12,0,0,0-2.53-.66,5,5,0,0,0-2.53.68C560.64,334.71,556.28,348.2,557.49,369.22Z" transform="translate(-128.73 -330.2)" style="fill:#979797"/><path d="M566.87,423S548,391.73,546.61,364.5s17.62-34.31,17.62-34.31a31.36,31.36,0,0,0-9.43,2.95c-3.72,1.74-16.86,9.7-17.12,29.36C538,381.13,555.24,412.8,566.87,423Z" transform="translate(-128.73 -330.2)" style="fill:#979797"/><path d="M594.06,364.5C592.69,391.73,573.81,423,573.81,423c11.62-10.16,28.85-41.82,29.19-60.45-.26-19.66-13.4-27.61-17.12-29.36a31.26,31.26,0,0,0-9.43-2.95S595.42,337.27,594.06,364.5Z" transform="translate(-128.73 -330.2)" style="fill:#979797"/></g></svg>