<?xml version="1.0" encoding="UTF-8" standalone="no"?>
<!-- Uploaded to: SVG Repo, www.svgrepo.com, Generator: SVG Repo Mixer Tools -->

<svg
   fill="#000000"
   width="810"
   height="502"
   viewBox="0 0 24.3 15.06"
   role="img"
   version="1.1"
   id="svg6"
   sodipodi:docname="markdown-svgrepo-com.svg"
   inkscape:version="1.2.2 (b0a8486541, 2022-12-01)"
   xmlns:inkscape="http://www.inkscape.org/namespaces/inkscape"
   xmlns:sodipodi="http://sodipodi.sourceforge.net/DTD/sodipodi-0.dtd"
   xmlns="http://www.w3.org/2000/svg"
   xmlns:svg="http://www.w3.org/2000/svg"
   xmlns:rdf="http://www.w3.org/1999/02/22-rdf-syntax-ns#"
   xmlns:cc="http://creativecommons.org/ns#"
   xmlns:dc="http://purl.org/dc/elements/1.1/">
  <defs
     id="defs10" />
  <sodipodi:namedview
     id="namedview8"
     pagecolor="#ffffff"
     bordercolor="#000000"
     borderopacity="0.25"
     inkscape:showpageshadow="2"
     inkscape:pageopacity="0.0"
     inkscape:pagecheckerboard="0"
     inkscape:deskcolor="#d1d1d1"
     showgrid="false"
     inkscape:zoom="0.60723471"
     inkscape:cx="445.46202"
     inkscape:cy="407.5854"
     inkscape:window-width="1396"
     inkscape:window-height="831"
     inkscape:window-x="0"
     inkscape:window-y="0"
     inkscape:window-maximized="1"
     inkscape:current-layer="svg6" />
  <title
     id="title2">Markdown icon</title>
  <g
     id="g117"
     transform="translate(0.14999986,-4.47)">
    <path
       d="M 22.269,19.385 H 1.731 a 1.73,1.73 0 0 1 -1.73,-1.73 V 6.345 a 1.73,1.73 0 0 1 1.73,-1.73 h 20.538 a 1.73,1.73 0 0 1 1.73,1.73 v 11.308 a 1.73,1.73 0 0 1 -1.73,1.731 z m -16.5,-3.462 v -4.5 l 2.308,2.885 2.307,-2.885 v 4.5 h 2.308 V 8.078 H 10.384 L 8.077,10.963 5.769,8.078 H 3.461 v 7.847 z M 21.231,12 H 18.923 V 8.077 H 16.616 V 12 h -2.308 l 3.461,4.039 z"
       id="path4" />
  </g>
  <metadata
     id="metadata148">
    <rdf:RDF>
      <cc:Work
         rdf:about="">
        <dc:title>Markdown icon</dc:title>
      </cc:Work>
    </rdf:RDF>
  </metadata>
</svg>
