<?xml version="1.0" encoding="UTF-8" standalone="no"?>
<!-- Uploaded to: SVG Repo, www.svgrepo.com, Generator: SVG Repo Mixer Tools -->

<svg
   fill="#000000"
   width="710.5mm"
   height="132.82083mm"
   viewBox="0 0 80.56063 15.06"
   role="img"
   version="1.1"
   id="svg6"
   sodipodi:docname="markdown-logo.svg"
   inkscape:version="1.2.2 (b0a8486541, 2022-12-01)"
   xmlns:inkscape="http://www.inkscape.org/namespaces/inkscape"
   xmlns:sodipodi="http://sodipodi.sourceforge.net/DTD/sodipodi-0.dtd"
   xmlns="http://www.w3.org/2000/svg"
   xmlns:svg="http://www.w3.org/2000/svg"
   xmlns:rdf="http://www.w3.org/1999/02/22-rdf-syntax-ns#"
   xmlns:cc="http://creativecommons.org/ns#"
   xmlns:dc="http://purl.org/dc/elements/1.1/">
  <defs
     id="defs10" />
  <sodipodi:namedview
     id="namedview8"
     pagecolor="#ffffff"
     bordercolor="#000000"
     borderopacity="0.25"
     inkscape:showpageshadow="2"
     inkscape:pageopacity="0.0"
     inkscape:pagecheckerboard="0"
     inkscape:deskcolor="#d1d1d1"
     showgrid="false"
     inkscape:zoom="0.17727627"
     inkscape:cx="758.70279"
     inkscape:cy="324.3525"
     inkscape:window-width="1396"
     inkscape:window-height="831"
     inkscape:window-x="0"
     inkscape:window-y="0"
     inkscape:window-maximized="1"
     inkscape:current-layer="text167"
     inkscape:document-units="mm" />
  <title
     id="title2">Markdown icon</title>
  <metadata
     id="metadata148">
    <rdf:RDF>
      <cc:Work
         rdf:about="">
        <dc:title>Markdown icon</dc:title>
      </cc:Work>
    </rdf:RDF>
  </metadata>
  <g
     id="g444"
     transform="translate(-0.03475336)">
    <g
       aria-label="Markdown"
       id="text167"
       style="font-weight:bold;font-size:10.4px;font-family:'Readex Pro';-inkscape-font-specification:'Readex Pro Bold';stroke-width:0.03">
      <g
         id="g485">
        <g
           id="g117"
           transform="translate(0.14999986,-4.4700001)">
          <path
             d="M 22.269,19.385 H 1.731 a 1.73,1.73 0 0 1 -1.73,-1.73 V 6.345 a 1.73,1.73 0 0 1 1.73,-1.73 h 20.538 a 1.73,1.73 0 0 1 1.73,1.73 v 11.308 a 1.73,1.73 0 0 1 -1.73,1.731 z m -16.5,-3.462 v -4.5 l 2.308,2.885 2.307,-2.885 v 4.5 h 2.308 V 8.078 H 10.384 L 8.077,10.963 5.769,8.078 H 3.461 v 7.847 z M 21.231,12 H 18.923 V 8.077 H 16.616 V 12 h -2.308 l 3.461,4.039 z"
             id="path4" />
        </g>
        <path
           d="M 27.459949,11.326 V 4.0460005 h 1.5912 l 2.6416,4.2951998 -1.1232,-0.0104 2.6728,-4.2847998 h 1.5392 V 11.326 h -1.7264 V 9.1212003 q 0,-0.9568 0.0416,-1.7159999 0.052,-0.7696 0.1664,-1.508 l 0.1976,0.5408 -2.0072,3.1095999 h -0.7072 l -1.9656,-3.0887999 0.1976,-0.5616 q 0.1248,0.6968 0.1664,1.4456 0.052,0.7383999 0.052,1.7783999 V 11.326 Z"
           id="path456" />
        <path
           d="M 39.367952,11.326 V 7.9356003 q 0,-0.4263999 -0.2392,-0.6239999 -0.2288,-0.208 -0.6448,-0.208 -0.4056,0 -0.728,0.156 -0.312,0.1456 -0.6032,0.4887999 l -0.9984,-0.9671999 q 0.4992,-0.5096 1.144,-0.8008 0.6448,-0.2912 1.404,-0.2912 0.6968,0 1.2064,0.208 0.5096,0.208 0.7904,0.6344 0.2808,0.4264 0.2808,1.0815999 V 11.326 Z m -1.4352,0.104 q -0.52,0 -0.9464,-0.208 -0.416,-0.208 -0.6656,-0.572 -0.2392,-0.3744 -0.2392,-0.8735997 0,-0.4264 0.156,-0.7488 0.156,-0.3224 0.4576,-0.5304 0.312,-0.2184 0.7696,-0.3224 0.468,-0.1144 1.0816,-0.1144 h 1.6744 l -0.0936,1.0504 h -1.5392 q -0.2184,0 -0.3848,0.0416 -0.1664,0.0312 -0.2808,0.1144 -0.1144,0.0728 -0.1768,0.1768 -0.052,0.104 -0.052,0.2496 0,0.156 0.0832,0.2704 0.0832,0.1143997 0.2184,0.1767997 0.1456,0.0624 0.3328,0.0624 0.2704,0 0.5096,-0.0832 0.2496,-0.0936 0.4368,-0.2599997 0.1976,-0.1664 0.312,-0.3848 l 0.2912,0.7487997 q -0.2184,0.3536 -0.5304,0.624 -0.3016,0.2704 -0.6656,0.4264 -0.3536,0.156 -0.7488,0.156 z"
           id="path458" />
        <path
           d="M 42.311152,11.326 V 5.8036004 h 1.5912 l 0.0728,1.7992 -0.312,-0.3536 q 0.1352,-0.4368 0.416,-0.7904 0.2808,-0.3536 0.6656,-0.5616 0.3952,-0.208 0.8216,-0.208 0.1872,0 0.3432,0.0312 0.1664,0.0208 0.2912,0.0728 l -0.4472,1.8407999 q -0.1144,-0.0624 -0.312,-0.1039999 -0.1872,-0.052 -0.3952,-0.052 -0.2288,0 -0.4264,0.0832 -0.1872,0.0728 -0.3328,0.2183999 -0.1352,0.1456 -0.2184,0.3432 -0.0728,0.1976 -0.0728,0.4472 V 11.326 Z"
           id="path460" />
        <path
           d="m 48.655145,9.7036003 -0.5928,-1.2688 2.5688,-2.6311999 h 2.1944 z M 47.053545,11.326 V 3.6300005 h 1.6744 V 11.326 Z m 3.7336,0 -1.924,-2.4959997 1.1856,-0.9152 2.7248,3.4111997 z"
           id="path462" />
        <path
           d="m 55.44636,11.43 q -0.7072,0 -1.279199,-0.364 -0.5616,-0.364 -0.884,-1.0088 -0.3224,-0.6551997 -0.3224,-1.4871997 0,-0.832 0.3224,-1.4767999 0.3224,-0.6552 0.884,-1.0296 0.571999,-0.3744 1.289599,-0.3744 0.3744,0 0.7176,0.1144 0.3536,0.1144 0.624,0.312 0.2808,0.1976 0.4576,0.4472 0.1768,0.2496 0.2184,0.5304 l -0.4056,0.0936 V 3.6300005 h 1.6744 V 11.326 h -1.56 l -0.0936,-1.248 0.3328,0.0624 q -0.0208,0.2496 -0.1872,0.4888 -0.1664,0.2288 -0.4472,0.416 -0.2704,0.1768 -0.6136,0.2808 -0.3432,0.104 -0.728,0.104 z m 0.416,-1.3832 q 0.3848,0 0.6552,-0.1767997 0.2808,-0.1872 0.4368,-0.52 0.156,-0.3328 0.156,-0.78 0,-0.4576 -0.156,-0.7904 -0.156,-0.3327999 -0.4368,-0.5095999 -0.2704,-0.1872 -0.6552,-0.1872 -0.3744,0 -0.6552,0.1872 -0.2704,0.1768 -0.4264,0.5095999 -0.156,0.3328 -0.156,0.7904 0,0.4472 0.156,0.78 0.156,0.3328 0.4264,0.52 0.2808,0.1767997 0.6552,0.1767997 z"
           id="path464" />
        <path
           d="m 62.736752,11.43 q -0.8528,0 -1.5288,-0.364 -0.676,-0.3744 -1.0608,-1.0192 -0.3848,-0.6551997 -0.3848,-1.4767997 0,-0.8424 0.3848,-1.4871999 0.3848,-0.6552 1.0608,-1.0192 0.676,-0.3744 1.5288,-0.3744 0.8632,0 1.5288,0.3744 0.676,0.364 1.0608,1.0192 0.3848,0.6447999 0.3848,1.4871999 0,0.8216 -0.3848,1.4767997 -0.3848,0.6448 -1.0608,1.0192 -0.6656,0.364 -1.5288,0.364 z m 0,-1.4351997 q 0.3744,0 0.6552,-0.1872 0.2912,-0.1872 0.4576,-0.5096 0.1664,-0.3224 0.156,-0.728 0.0104,-0.4264 -0.156,-0.7488 -0.1664,-0.3327999 -0.4576,-0.5095999 -0.2808,-0.1872 -0.6552,-0.1872 -0.364,0 -0.6552,0.1872 -0.2912,0.1872 -0.4576,0.5095999 -0.1664,0.3224 -0.1664,0.7488 0,0.4056 0.1664,0.728 0.1664,0.3224 0.4576,0.5096 0.2912,0.1872 0.6552,0.1872 z"
           id="path466" />
        <path
           d="m 67.801543,11.326 -1.8096,-5.5223996 h 1.7576 l 1.0192,3.5671999 -0.2288,-0.0416 1.144,-2.7663999 h 0.9776 l 1.2168,2.7767999 -0.2496,0.0208 1.0192,-3.5567999 h 1.7576 L 72.523143,11.326 h -1.2272 l -1.2064,-2.9535997 0.1352,0.0208 -1.1856,2.9327997 z"
           id="path468" />
        <path
           d="M 75.268738,11.326 V 5.8036004 h 1.5912 l 0.0624,1.1232 -0.3432,0.1248 q 0.1144,-0.3744 0.4056,-0.676 0.3016,-0.312 0.7176,-0.4992 0.416,-0.1872 0.8736,-0.1872 0.624,0 1.0504,0.26 0.4264,0.2496 0.6344,0.7592 0.2184,0.4992 0.2184,1.2375999 V 11.326 h -1.6744 V 8.0708003 q 0,-0.3328 -0.0936,-0.5511999 -0.0936,-0.2184 -0.2808,-0.3224 -0.1872,-0.104 -0.468,-0.0936 -0.2184,0 -0.4056,0.0728 -0.1872,0.0624 -0.3328,0.1976 -0.1352,0.1248 -0.208,0.2911999 -0.0728,0.1664 -0.0728,0.3744 V 11.326 h -0.8424 q -0.2704,0 -0.4888,0 -0.208,0 -0.3432,0 z"
           id="path470" />
      </g>
    </g>
  </g>
</svg>
