<?xml version="1.0" encoding="UTF-8" standalone="no"?>
<svg
   xmlns:dc="http://purl.org/dc/elements/1.1/"
   xmlns:cc="http://creativecommons.org/ns#"
   xmlns:rdf="http://www.w3.org/1999/02/22-rdf-syntax-ns#"
   xmlns:svg="http://www.w3.org/2000/svg"
   xmlns="http://www.w3.org/2000/svg"
   xmlns:sodipodi="http://sodipodi.sourceforge.net/DTD/sodipodi-0.dtd"
   xmlns:inkscape="http://www.inkscape.org/namespaces/inkscape"
   viewBox="0 0 1000 365.29681"
   display="block"
   class="Box-sc-g760pt-0 IconBase-sc-1liaym9-0 elgVkQ"
   version="1.1"
   id="svg309"
   sodipodi:docname="A.svg"
   width="1000"
   height="365.29681"
   style="display:block;fill:none"
   inkscape:version="0.92.4 (5da689c313, 2019-01-14)">
  <metadata
     id="metadata315">
    <rdf:RDF>
      <cc:Work
         rdf:about="">
        <dc:format>image/svg+xml</dc:format>
        <dc:type
           rdf:resource="http://purl.org/dc/dcmitype/StillImage" />
        <dc:title></dc:title>
      </cc:Work>
    </rdf:RDF>
  </metadata>
  <defs
     id="defs313" />
  <sodipodi:namedview
     pagecolor="#ffffff"
     bordercolor="#111111"
     borderopacity="1"
     objecttolerance="10"
     gridtolerance="10"
     guidetolerance="10"
     inkscape:pageopacity="0"
     inkscape:pageshadow="2"
     inkscape:window-width="1920"
     inkscape:window-height="1017"
     id="namedview311"
     showgrid="false"
     fit-margin-top="0"
     fit-margin-left="0"
     fit-margin-right="0"
     fit-margin-bottom="0"
     inkscape:zoom="0.75570776"
     inkscape:cx="340.13306"
     inkscape:cy="158.38022"
     inkscape:window-x="1912"
     inkscape:window-y="-8"
     inkscape:window-maximized="1"
     inkscape:current-layer="svg309" />
  <path
     d="m 757.28311,186.24429 v 80.78539 h 33.0936 v -75.8322 c 0,-33.77397 45.97375,-33.82876 45.97375,-33.82876 v -32.86758 c 0,0 -12.85388,0.57192 -23.01028,2.85731 -28.79908,6.47717 -56.05707,20.68378 -56.05707,58.88584 z"
     id="path295"
     inkscape:connector-curvature="0"
     style="fill:currentColor;stroke-width:1.14155257" />
  <path
     d="m 507.81507,122.86758 c 12.89155,0 29,7.29338 37.7694,20.12215 9.08106,-11.66667 24.0137,-19.5411 42.46462,-19.84019 23.43835,-0.30022 52.42009,14.28767 52.42009,58.0411 v 85.73858 h -33.1016 v -85.73858 c 0,-14.58676 -10.54795,-25.07421 -26.3379,-25.07421 -15.78995,0 -26.34703,10.48745 -26.34703,25.07421 v 85.73858 h -33.09247 v -85.73858 c 0,-14.58676 -10.53881,-25.07421 -26.34589,-25.07421 -15.80822,0 -26.64726,10.48745 -26.64726,25.07421 v 85.73858 H 433.78995 V 127.21347 h 34.80708 v 14.03425 c 9.38014,-11.36758 23.12786,-18.38014 39.2363,-18.38014 z"
     id="path297"
     inkscape:connector-curvature="0"
     style="fill:currentColor;stroke-width:1.14155257" />
  <path
     d="M 716.57078,128.99201 V 267.03082 H 682.9121 V 128.99201 Z"
     id="path299"
     inkscape:connector-curvature="0"
     style="fill:currentColor;stroke-width:1.14155257" />
  <path
     d="m 699.73744,107.02911 c 10.37672,0 18.78996,-8.371005 18.78996,-18.69726 0,-10.326142 -8.41324,-18.697146 -18.78996,-18.697146 -10.37671,0 -18.78881,8.371004 -18.78881,18.697146 0,10.326255 8.4121,18.69726 18.78881,18.69726 z"
     id="path301"
     inkscape:connector-curvature="0"
     style="fill:currentColor;stroke-width:1.14155257" />
  <path
     d="m 926.22032,122.56849 c -40.75,0 -73.77968,32.86758 -73.77968,73.41895 0,40.55137 33.02968,73.41895 73.77968,73.41895 40.75114,0 73.77968,-32.86758 73.77968,-73.41895 0,-40.55137 -33.02854,-73.41895 -73.77968,-73.41895 z m 0,113.82534 c -23.06393,0 -41.77169,-18.60616 -41.77169,-41.56735 0,-22.96119 18.69863,-41.56735 41.77169,-41.56735 23.0742,0 41.77169,18.60616 41.77169,41.56735 0,22.96119 -18.69749,41.56735 -41.77169,41.56735 z"
     id="path303"
     inkscape:connector-curvature="0"
     style="fill:currentColor;stroke-width:1.14155257" />
  <path
     d="M 0,91.324201 C 0,40.887215 40.887215,0 91.324201,0 H 273.9726 c 50.43722,0 91.3242,40.887215 91.3242,91.324201 V 273.9726 c 0,50.43721 -40.88698,91.3242 -91.3242,91.3242 H 91.324201 C 40.887215,365.2968 0,324.40981 0,273.9726 Z"
     id="path305"
     style="fill:#ffdd33;fill-opacity:1;stroke-width:1.14155257"
     inkscape:connector-curvature="0" />
  <path
     d="M 242.85845,69.634704 H 209.69749 L 237.33105,118.18722 176.53653,69.634704 H 143.37671 L 173.77397,128.97831 110.21553,69.634704 H 77.054795 l 33.160735,75.537666 -33.160735,151.0605 h 33.160735 l 63.55844,-161.85159 -30.39726,161.85159 h 33.15982 l 60.79452,-172.64269 -27.63356,172.64269 h 33.16096 l 60.79452,-188.83641 z"
     id="path307"
     style="clip-rule:evenodd;fill:#000000;fill-opacity:1;fill-rule:evenodd;stroke-width:1.14155257"
     inkscape:connector-curvature="0" />
</svg>
