<?xml version="1.0" encoding="UTF-8" standalone="no"?>
<!-- Uploaded to: SVG Repo, www.svgrepo.com, Generator: SVG Repo Mixer Tools -->

<svg
   width="219.50301mm"
   height="68mm"
   viewBox="0 -178 530.9553 164.48504"
   version="1.1"
   preserveAspectRatio="xMidYMid"
   id="svg52"
   sodipodi:docname="postman-svgrepo-com.svg"
   inkscape:version="1.2.2 (b0a8486541, 2022-12-01)"
   xmlns:inkscape="http://www.inkscape.org/namespaces/inkscape"
   xmlns:sodipodi="http://sodipodi.sourceforge.net/DTD/sodipodi-0.dtd"
   xmlns="http://www.w3.org/2000/svg"
   xmlns:svg="http://www.w3.org/2000/svg">
  <defs
     id="defs56" />
  <sodipodi:namedview
     id="namedview54"
     pagecolor="#ffffff"
     bordercolor="#000000"
     borderopacity="0.25"
     inkscape:showpageshadow="2"
     inkscape:pageopacity="0.0"
     inkscape:pagecheckerboard="0"
     inkscape:deskcolor="#d1d1d1"
     showgrid="false"
     inkscape:zoom="0.84533625"
     inkscape:cx="478.50781"
     inkscape:cy="95.228378"
     inkscape:window-width="1396"
     inkscape:window-height="831"
     inkscape:window-x="0"
     inkscape:window-y="0"
     inkscape:window-maximized="1"
     inkscape:current-layer="svg52"
     inkscape:document-units="mm" />
  <g
     id="g50"
     transform="matrix(1.0275723,0,0,1.0275723,2.4191499,-175.5811)">
    <path
       d="m 293.90888,52.905756 c 2.71837,0 5.35907,0.388339 7.92211,1.165017 2.48537,0.854346 3.80572,1.941694 3.80572,3.262047 0,0.69901 -0.233,1.39802 -0.69901,2.019362 -0.31067,0.621342 -1.00968,1.087349 -1.70869,1.087349 -1.00968,-0.310671 -2.01936,-0.69901 -3.02904,-1.165017 -1.9417,-0.854345 -4.03873,-1.320352 -6.21343,-1.242684 -2.25236,-0.07767 -4.5824,0.466006 -6.52409,1.631023 -1.70869,1.165017 -2.6407,3.184379 -2.48537,5.281409 -0.0777,1.941695 0.69901,3.805721 2.1747,5.048406 1.63102,1.320352 3.49505,2.407701 5.51441,3.029043 2.1747,0.776678 4.3494,1.631023 6.5241,2.640705 2.17469,1.087349 4.03872,2.718372 5.43674,4.737734 1.55335,2.485369 2.33003,5.359077 2.25236,8.310453 0,4.582399 -1.32035,8.077449 -4.03872,10.407482 -2.95138,2.485365 -6.7571,3.728055 -10.64049,3.495055 -3.49505,0.0777 -6.9901,-0.77668 -10.01914,-2.48537 -2.79604,-1.864031 -4.19406,-3.495054 -4.19406,-5.126077 0,-0.776678 0.31067,-1.475688 0.77668,-2.09703 0.38834,-0.543675 0.93201,-0.932014 1.63102,-1.009682 0.62134,0.07767 1.16502,0.388339 1.55336,0.854346 0.62134,0.543675 1.24268,1.165017 1.94169,1.864027 0.93202,0.854345 2.01936,1.475688 3.18438,1.864026 1.55336,0.621343 3.26205,0.854346 4.89307,0.854346 2.48537,0.155336 4.89307,-0.621342 6.83477,-2.09703 1.70869,-1.553355 2.6407,-3.883389 2.48536,-6.213422 0.0777,-2.252366 -0.69901,-4.349396 -2.25236,-5.980419 -1.55336,-1.553356 -3.41738,-2.718373 -5.51441,-3.49505 -2.1747,-0.776678 -4.27173,-1.631024 -6.5241,-2.563037 -2.17469,-0.932014 -4.03872,-2.330034 -5.51441,-4.19406 -1.55336,-2.09703 -2.4077,-4.660067 -2.25237,-7.300771 -0.0777,-2.097031 0.38834,-4.19406 1.32036,-6.135755 0.77667,-1.631023 2.01936,-2.951376 3.57271,-3.883389 1.47569,-0.854346 3.02905,-1.475688 4.66007,-1.941695 1.70869,-0.388338 3.41738,-0.621342 5.12608,-0.621342 z m -39.76591,3.650386 c 2.64071,2.330033 3.96106,6.058087 3.96106,11.028825 v 20.115954 c 0,5.048406 -1.32035,8.698792 -3.96106,11.028825 -6.21342,4.737734 -14.75688,4.737734 -20.9703,0 -2.56304,-2.330033 -3.88339,-5.980419 -3.88339,-11.028825 V 67.584967 c 0,-5.048406 1.32035,-8.698792 3.88339,-11.028825 6.21342,-4.660067 14.75688,-4.660067 20.9703,0 z m 191.91708,-3.49505 c 1.86403,0 3.02905,0.621342 3.41739,1.941694 l 13.74719,44.270635 v 0.388339 c 0,0.69901 -0.466,1.32035 -1.08734,1.63102 -0.69901,0.46601 -1.55336,0.69901 -2.48537,0.62135 -0.85435,0.0777 -1.70869,-0.38834 -2.01937,-1.24269 l -2.95137,-9.78614 h -17.55292 l -2.95137,9.78614 c -0.23301,0.85435 -1.16502,1.39802 -2.01937,1.32035 -0.77667,0 -1.55335,-0.233 -2.25236,-0.69901 -0.69901,-0.31067 -1.08735,-0.93201 -1.08735,-1.708688 0,-0.155336 0.0777,-0.388339 0.15533,-0.543675 l 13.66953,-44.037631 c 0.38834,-1.320352 1.55336,-1.941694 3.41738,-1.941694 z m -69.27965,0 c 1.78635,0 3.26204,1.165017 4.50473,3.572718 L 391.77028,76.749765 402.3331,56.63381 c 1.32035,-2.330034 2.79604,-3.572718 4.50473,-3.572718 1.32035,-0.233004 2.56303,0.69901 2.79604,2.019362 0.0777,0.233003 0.0777,0.466007 0,0.69901 v 44.037631 c 0,0.621345 -0.31067,1.165015 -0.85435,1.475685 -1.24268,0.69901 -2.71837,0.69901 -3.96106,0 -0.54367,-0.31067 -0.85434,-0.85434 -0.85434,-1.475685 V 64.788927 l -10.09681,18.950938 c -0.31067,0.932013 -1.16502,1.631023 -2.1747,1.631023 -0.93201,-0.07767 -1.78636,-0.69901 -2.09703,-1.631023 L 379.49877,64.400588 v 35.416507 c 0,0.621345 -0.31067,1.165015 -0.85435,1.475685 -0.54367,0.38834 -1.24268,0.62135 -1.86402,0.62135 -0.69901,0 -1.39802,-0.15534 -1.9417,-0.54368 -0.62134,-0.233 -1.00968,-0.85435 -0.93201,-1.475687 V 55.857132 c -0.23301,-1.320352 0.69901,-2.563037 2.01936,-2.79604 0.31067,-0.07767 0.62134,-0.07767 0.85435,0 z m 108.57955,-0.07767 c 0.85435,0 1.70869,0.310671 2.4077,0.854346 0.77668,0.776677 1.47569,1.708691 1.86403,2.718372 l 16.69857,32.620467 v -34.25149 c 0,-0.621343 0.31067,-1.165017 0.85435,-1.398021 1.24268,-0.69901 2.71837,-0.69901 3.96105,0 C 511.68933,53.83777 512,54.381444 512,54.925119 v 44.969644 c 0,0.621337 -0.31067,1.165017 -0.85435,1.475687 -0.62134,0.38834 -1.24268,0.54368 -1.94169,0.54368 -1.55336,-0.0777 -2.95138,-1.08735 -3.49505,-2.563042 L 488.15599,65.72094 v 34.173823 c 0,0.621337 -0.31067,1.165017 -0.77668,1.475687 -1.24268,0.69901 -2.71837,0.69901 -3.96105,0 -0.54368,-0.31067 -0.85435,-0.85435 -0.85435,-1.475687 V 54.925119 c 0,-1.320353 0.93201,-1.941695 2.79604,-1.941695 z m -302.516,0 h 12.65985 c 3.72805,-0.155336 7.45611,1.087349 10.32981,3.49505 2.56304,2.330033 3.88339,5.980419 3.88339,10.951157 v 0.621342 c 0,4.970738 -1.32035,8.698792 -3.96105,11.028825 -2.95138,2.407701 -6.67943,3.728053 -10.48515,3.49505 h -9.00947 v 17.319915 c 0,0.621339 -0.31067,1.165019 -0.85434,1.475689 -1.24269,0.69901 -2.71837,0.69901 -3.96106,0 -0.54367,-0.31067 -0.85434,-0.85435 -0.85434,-1.475689 V 54.925119 c 0,-0.543675 0.233,-1.009682 0.62134,-1.398021 0.466,-0.388338 1.00968,-0.621342 1.63102,-0.543674 z m 169.9371,0 c 0.62135,0 1.16502,0.233003 1.47569,0.776678 0.38834,0.466007 0.54367,1.087349 0.54367,1.708691 0,0.621342 -0.15533,1.320352 -0.54367,1.864027 -0.31067,0.543674 -0.85434,0.776678 -1.47569,0.776678 h -10.64048 v 41.785265 c 0,0.621339 -0.31067,1.165019 -0.85435,1.475689 -1.24268,0.69901 -2.71837,0.69901 -3.96106,0 -0.54367,-0.31067 -0.85434,-0.85435 -0.85434,-1.475689 V 58.109498 H 325.675 c -0.62135,0 -1.16502,-0.233004 -1.47569,-0.776678 -0.38834,-0.543675 -0.62134,-1.165017 -0.62134,-1.864027 0,-0.621342 0.15533,-1.242684 0.54367,-1.708691 0.31067,-0.543675 0.85435,-0.776678 1.47569,-0.776678 z M 243.73549,58.03183 c -5.82508,0 -8.69879,3.106711 -8.69879,9.475469 l -0.0777,20.193622 c 0,6.291091 2.87371,9.475469 8.77646,9.475469 2.4077,0.155336 4.73774,-0.69901 6.52409,-2.330033 1.70869,-1.941694 2.48537,-4.504731 2.33004,-7.145436 V 67.507299 c 0.233,-2.563037 -0.62135,-5.126074 -2.33004,-7.145436 -1.78635,-1.631023 -4.11639,-2.485369 -6.52409,-2.330033 z m 202.32456,3.184379 -7.53377,25.009025 h 14.98988 z M 195.2708,58.109498 h -9.00947 l -0.0777,19.805283 h 9.08713 c 2.4077,0.155336 4.8154,-0.69901 6.52409,-2.407701 1.70869,-1.941694 2.56304,-4.504731 2.33003,-7.145436 v -0.776677 c 0.23301,-2.563037 -0.62134,-5.126074 -2.33003,-7.145436 -1.78636,-1.631024 -4.11639,-2.485369 -6.52409,-2.330033 z"
       fill="#ff6c37"
       id="path2" />
    <g
       id="g48">
      <path
         d="M 154.72821,87.545586 C 160.16496,44.983643 130.10753,6.0720853 87.623254,0.6353408 45.138978,-4.8014038 6.0720853,25.256027 0.6353408,67.740302 -4.8014038,110.22458 25.256027,149.2138 67.740302,154.72821 110.30225,160.16496 149.2138,130.10753 154.72821,87.545586 Z"
         fill="#ff6c37"
         id="path4" />
      <g
         transform="translate(30.454428,27.430725)"
         id="g46">
        <path
           d="M 75.265418,22.445988 42.489615,55.221791 33.24715,45.979325 C 65.479278,13.747197 68.663657,16.543237 75.265418,22.445988 Z"
           fill="#ffffff"
           id="path6" />
        <path
           d="m 42.489615,55.998469 c -0.233003,0 -0.388339,-0.07767 -0.543674,-0.233003 L 32.625807,46.523 c -0.310671,-0.310671 -0.310671,-0.776678 0,-1.087349 32.775803,-32.775803 36.193186,-29.669092 43.105618,-23.455669 0.155335,0.155335 0.233003,0.310671 0.233003,0.543674 0,0.233003 -0.07767,0.388339 -0.233003,0.543674 L 42.955622,55.765466 c -0.07767,0.155335 -0.310671,0.233003 -0.466007,0.233003 z M 34.334499,45.979325 42.489615,54.134442 74.100402,22.523656 C 68.352986,17.397583 64.469597,15.844227 34.334499,45.979325 Z"
           fill="#ff6c37"
           id="path8" />
        <path
           d="M 51.887417,64.619592 42.955622,55.687798 75.731425,22.911995 c 8.776459,8.854127 -4.349396,23.222666 -23.844008,41.707597 z"
           fill="#ffffff"
           id="path10" />
        <path
           d="m 51.887417,65.39627 c -0.233004,0 -0.388339,-0.07767 -0.543675,-0.233003 l -8.931794,-8.931795 c -0.155336,-0.155335 -0.155336,-0.310671 -0.155336,-0.543674 0,-0.233004 0.07767,-0.388339 0.233003,-0.543675 L 75.265418,22.36832 c 0.310671,-0.310671 0.776678,-0.310671 1.087349,0 2.019362,1.864027 3.106711,4.504732 3.029044,7.223104 -0.155336,8.621123 -9.941476,19.57228 -26.873052,35.571843 -0.233003,0.155335 -0.466007,0.233003 -0.621342,0.233003 z m -7.844446,-9.708472 c 4.970738,5.048405 7.067768,7.067768 7.844446,7.844445 13.048187,-12.426844 25.708035,-25.16436 25.785702,-33.940819 0.07767,-2.019362 -0.69901,-4.038725 -2.019362,-5.59208 z"
           fill="#ff6c37"
           id="path12" />
        <path
           d="m 33.402485,46.212329 6.601761,6.601761 c 0.155336,0.155335 0.155336,0.310671 0,0.466007 -0.07767,0.07767 -0.07767,0.07767 -0.155335,0.07767 L 26.179382,56.30914 c -0.69901,0.07767 -1.320353,-0.388339 -1.475688,-1.087349 -0.07767,-0.388339 0.07767,-0.776678 0.310671,-1.009681 l 7.922114,-7.922114 c 0.155335,-0.155335 0.388339,-0.233003 0.466006,-0.07767 z"
           fill="#ffffff"
           id="path14" />
        <path
           d="m 25.946378,57.085818 c -1.165016,0 -2.019362,-0.932014 -2.019362,-2.09703 0,-0.543675 0.233003,-1.087349 0.621342,-1.475688 l 7.922114,-7.922114 c 0.466007,-0.388338 1.087349,-0.388338 1.553356,0 l 6.601761,6.601762 c 0.466006,0.388339 0.466006,1.087349 0,1.553355 -0.155336,0.155336 -0.310671,0.233004 -0.543675,0.310671 L 26.412385,57.00815 c -0.155336,0 -0.310671,0.07767 -0.466007,0.07767 z m 7.223104,-10.019144 -7.611443,7.611443 c -0.155335,0.155335 -0.233003,0.388339 -0.07767,0.621342 0.07767,0.233003 0.310671,0.310671 0.543674,0.233003 l 12.815184,-2.79604 z"
           fill="#ff6c37"
           id="path16" />
        <path
           d="M 92.585333,4.2717279 C 87.614595,-0.54367445 79.614814,-0.3883389 74.799412,4.6600668 69.984009,9.7084724 70.139345,17.630586 75.187751,22.445988 c 4.116392,3.961057 10.329814,4.660067 15.222884,1.708691 l -8.854127,-8.854126 z"
           fill="#ffffff"
           id="path18" />
        <path
           d="m 83.886542,26.717716 c -7.378439,0 -13.358858,-5.980419 -13.358858,-13.358858 C 70.527684,5.980419 76.508103,0 83.886542,0 c 3.417382,0 6.757097,1.3203522 9.242466,3.7280534 0.155335,0.1553356 0.233003,0.3106711 0.233003,0.5436745 0,0.2330033 -0.07767,0.3883389 -0.233003,0.5436744 l -10.485151,10.4851507 8.232785,8.232784 c 0.310671,0.310671 0.310671,0.776678 0,1.087349 -0.07767,0.07767 -0.07767,0.07767 -0.155336,0.155336 -2.019362,1.242684 -4.427063,1.941694 -6.834764,1.941694 z m 0,-25.0866926 c -6.524094,0 -11.805503,5.281409 -11.727835,11.8055026 0,6.524093 5.281409,11.805502 11.805503,11.727834 1.786358,0 3.572718,-0.388338 5.203741,-1.242684 l -8.155117,-8.077449 c -0.155336,-0.155336 -0.233003,-0.310671 -0.233003,-0.543674 0,-0.233004 0.07767,-0.388339 0.233003,-0.543675 L 91.420316,4.3493956 C 89.323286,2.5630367 86.682582,1.6310234 83.886542,1.6310234 Z"
           fill="#ff6c37"
           id="path20" />
        <path
           d="M 92.818336,4.5047312 92.663001,4.3493956 81.556508,15.300553 l 8.776459,8.776459 c 0.854346,-0.543675 1.708692,-1.165017 2.407702,-1.864027 4.970737,-4.89307 4.970737,-12.8151837 0.07767,-17.7082538 z"
           fill="#ffffff"
           id="path22" />
        <path
           d="m 90.410635,24.931357 c -0.233003,0 -0.388339,-0.07767 -0.543674,-0.233003 l -8.854127,-8.854127 c -0.155336,-0.155336 -0.233003,-0.310671 -0.233003,-0.543674 0,-0.233004 0.07767,-0.388339 0.233003,-0.543675 L 92.041659,3.7280534 c 0.310671,-0.3106711 0.776677,-0.3106711 1.087349,0 l 0.233003,0.1553356 c 5.203741,5.2037412 5.203741,13.591861 0.07767,18.87327 -0.776678,0.776678 -1.631024,1.475688 -2.563037,2.019363 -0.233003,0.07767 -0.388339,0.155335 -0.466007,0.155335 z m -7.766778,-9.630804 7.844446,7.844445 c 0.621342,-0.388339 1.242684,-0.932013 1.708691,-1.39802 4.427064,-4.427063 4.660067,-11.650167 0.388339,-16.3102335 z"
           fill="#ff6c37"
           id="path24" />
        <path
           d="m 76.585771,23.844008 c -1.864027,-1.864026 -4.893071,-1.864026 -6.757097,0 l -29.280753,29.280753 4.89307,4.89307 30.989444,-27.183723 c 2.019362,-1.708691 2.174698,-4.737734 0.466007,-6.757096 -0.155336,-0.07767 -0.233004,-0.155336 -0.310671,-0.233004 z"
           fill="#ffffff"
           id="path26" />
        <path
           d="m 45.363323,58.794509 c -0.233003,0 -0.388339,-0.07767 -0.543674,-0.233003 l -4.89307,-4.893071 c -0.310671,-0.310671 -0.310671,-0.776677 0,-1.087348 L 69.207331,23.300334 c 2.174698,-2.174698 5.669748,-2.174698 7.844446,0 2.174698,2.174698 2.174698,5.669748 0,7.844445 -0.07767,0.07767 -0.155335,0.155336 -0.233003,0.233004 L 45.82933,58.561506 c -0.07767,0.155335 -0.233003,0.233003 -0.466007,0.233003 z M 41.63527,53.124761 45.440991,56.930482 75.88676,30.212766 c 1.708692,-1.39802 1.864027,-3.961057 0.466007,-5.669748 -1.39802,-1.708691 -3.961056,-1.864026 -5.669748,-0.466006 -0.07767,0.07767 -0.155335,0.155335 -0.310671,0.233003 z"
           fill="#ff6c37"
           id="path28" />
        <path
           d="m 18.101933,86.444238 c -0.310671,0.155336 -0.466007,0.466007 -0.388339,0.776678 l 1.320352,5.59208 c 0.310671,0.776678 -0.155336,1.708691 -1.009681,1.941695 -0.621342,0.233003 -1.320352,0 -1.708691,-0.466007 L 7.7721181,85.822896 35.654851,57.940163 l 9.630804,0.155336 6.524094,6.524093 C 50.256393,65.939945 40.858592,75.027075 18.101933,86.444238 Z"
           fill="#ffffff"
           id="path30" />
        <path
           d="m 17.480591,95.531369 c -0.621343,0 -1.242685,-0.233004 -1.631024,-0.69901 L 7.3837792,86.366571 C 7.2284436,86.211235 7.1507758,86.055899 7.1507758,85.822896 c 0,-0.233003 0.077668,-0.388339 0.2330034,-0.543674 L 35.266512,57.396489 c 0.155335,-0.155336 0.388339,-0.233003 0.543674,-0.233003 l 9.630805,0.155335 c 0.233003,0 0.388339,0.07767 0.543674,0.233004 l 6.524094,6.524093 c 0.155335,0.155335 0.233003,0.388339 0.233003,0.621342 0,0.233003 -0.07767,0.388339 -0.310671,0.543675 l -0.543674,0.466006 c -8.232785,7.223104 -19.416945,14.446207 -33.319478,21.35864 l 1.320353,5.514412 c 0.233003,1.009681 -0.233004,2.09703 -1.165017,2.640704 -0.466007,0.233004 -0.854346,0.310672 -1.242684,0.310672 z M 8.9371348,85.822896 16.936916,93.74501 c 0.233003,0.388339 0.69901,0.543674 1.087349,0.310671 0.388339,-0.233004 0.543674,-0.69901 0.310671,-1.087349 l -1.320352,-5.59208 c -0.155336,-0.69901 0.155335,-1.320353 0.776678,-1.631024 C 31.538458,78.832796 42.644951,71.68736 50.800068,64.619592 l -5.747416,-5.747415 -8.931795,-0.155336 z"
           fill="#ff6c37"
           id="path32" />
        <path
           d="m 1.1703568,92.502325 6.679429,-6.679429 9.9414762,9.941476 -15.8442274,-1.087349 c -0.69901,-0.07767 -1.16501668,-0.69901 -1.0873489,-1.39802 0,-0.310671 0.0776678,-0.621342 0.3106711,-0.776678 z"
           fill="#ffffff"
           id="path34" />
        <path
           d="M 17.791262,96.463382 1.8693668,95.376033 C 0.70435014,95.298365 -0.07232765,94.288684 0.00534013,93.123667 0.08300791,92.657661 0.23834347,92.191654 0.62668236,91.880983 L 7.3061114,85.201554 c 0.3106711,-0.310671 0.7766778,-0.310671 1.0873489,0 l 9.9414757,9.941476 c 0.233003,0.233003 0.310671,0.543674 0.155336,0.854345 -0.155336,0.310671 -0.388339,0.466007 -0.69901,0.466007 z M 7.8497858,86.910245 1.7140313,93.046 c -0.2330034,0.155335 -0.2330034,0.543674 0,0.69901 0.077668,0.07767 0.1553355,0.155335 0.3106711,0.155335 l 13.7471966,0.932014 z"
           fill="#ff6c37"
           id="path36" />
        <path
           d="m 32.936479,61.512881 c -0.466007,0 -0.776678,-0.388339 -0.776678,-0.776678 0,-0.233003 0.07767,-0.388338 0.233003,-0.543674 l 7.533775,-7.533775 c 0.310671,-0.310671 0.776678,-0.310671 1.087349,0 l 4.89307,4.893071 c 0.233003,0.233003 0.310671,0.466006 0.233003,0.776677 -0.07767,0.233004 -0.310671,0.466007 -0.621342,0.543675 l -12.426845,2.640704 c -0.07767,0 -0.155335,0 -0.155335,0 z m 7.533774,-7.223103 -5.126073,5.126073 8.38812,-1.786359 z"
           fill="#ff6c37"
           id="path38" />
        <path
           d="M 45.285655,58.095499 36.7422,59.959526 c -0.621343,0.155335 -1.242685,-0.233004 -1.39802,-0.854346 -0.07767,-0.388339 0,-0.776678 0.310671,-1.087349 l 4.737734,-4.737734 z"
           fill="#ffffff"
           id="path40" />
        <path
           d="m 36.586864,60.736203 c -1.087349,0 -1.941694,-0.854345 -1.941694,-1.941694 0,-0.543674 0.233003,-1.009681 0.543674,-1.39802 l 4.737735,-4.737735 c 0.310671,-0.310671 0.776678,-0.310671 1.087349,0 l 4.89307,4.893071 c 0.233003,0.233003 0.310671,0.466006 0.233003,0.776677 -0.07767,0.233004 -0.310671,0.466007 -0.621342,0.543675 l -8.543456,1.864026 c -0.155336,0 -0.310671,0 -0.388339,0 z m 3.883389,-6.446425 -4.19406,4.19406 c -0.155336,0.155335 -0.155336,0.310671 -0.07767,0.466006 0.07767,0.155336 0.233004,0.233004 0.466007,0.233004 l 7.145436,-1.553356 z"
           fill="#ff6c37"
           id="path42" />
        <path
           d="m 92.896004,11.960838 c -0.155335,-0.466007 -0.69901,-0.69901 -1.165017,-0.543674 -0.466006,0.155335 -0.69901,0.69901 -0.543674,1.165016 0,0.07767 0.07767,0.155336 0.07767,0.233004 0.466006,0.932013 0.310671,2.09703 -0.310671,2.951375 -0.310671,0.388339 -0.233004,0.932014 0.07767,1.242685 0.388339,0.310671 0.932014,0.233003 1.242685,-0.155336 1.165017,-1.475688 1.39802,-3.339714 0.621342,-4.89307 z"
           fill="#ff6c37"
           id="path44" />
      </g>
    </g>
  </g>
</svg>
