<?xml version="1.0" encoding="UTF-8" standalone="no"?>
<!-- Uploaded to: SVG Repo, www.svgrepo.com, Generator: SVG Repo Mixer Tools -->

<svg
   width="810"
   height="570"
   viewBox="0 -38 259.2 182.4"
   version="1.1"
   preserveAspectRatio="xMidYMid"
   id="svg26"
   sodipodi:docname="salesforce-svgrepo-com.svg"
   inkscape:version="1.2.2 (b0a8486541, 2022-12-01)"
   xmlns:inkscape="http://www.inkscape.org/namespaces/inkscape"
   xmlns:sodipodi="http://sodipodi.sourceforge.net/DTD/sodipodi-0.dtd"
   xmlns="http://www.w3.org/2000/svg"
   xmlns:svg="http://www.w3.org/2000/svg">
  <defs
     id="defs30" />
  <sodipodi:namedview
     id="namedview28"
     pagecolor="#ffffff"
     bordercolor="#000000"
     borderopacity="0.25"
     inkscape:showpageshadow="2"
     inkscape:pageopacity="0.0"
     inkscape:pagecheckerboard="0"
     inkscape:deskcolor="#d1d1d1"
     showgrid="false"
     inkscape:zoom="0.61790947"
     inkscape:cx="306.67923"
     inkscape:cy="241.94483"
     inkscape:window-width="1396"
     inkscape:window-height="831"
     inkscape:window-x="0"
     inkscape:window-y="0"
     inkscape:window-maximized="1"
     inkscape:current-layer="svg26" />
  <g
     id="g24"
     transform="translate(1.6000056,-36.43111)">
    <path
       d="m 106.5532,159.61098 c 8.24793,8.59401 19.73091,13.92383 32.43067,13.92383 16.88202,0 31.61098,-9.41371 39.45453,-23.38855 6.81619,3.04561 14.361,4.73964 22.29927,4.73964 30.44884,0 55.13432,-24.90043 55.13432,-55.615207 0,-30.718424 -24.68548,-55.618854 -55.13432,-55.618854 -3.71594,0 -7.34809,0.371594 -10.86001,1.081994 -6.90728,-12.320886 -20.06971,-20.645317 -35.17755,-20.645317 -6.32438,0 -12.30632,1.460874 -17.6325,4.058388 C 130.06562,11.676553 113.75192,0.12799973 94.738705,0.12799973 c -19.800123,0 -36.674855,12.52854127 -43.152246,30.09910127 -2.83067,-0.601108 -5.763347,-0.914413 -8.772529,-0.914413 -23.57435,0 -42.68593123,19.308308 -42.68593123,43.130388 0,15.963962 8.58673213,29.902374 21.34478723,37.359754 -2.626658,6.04386 -4.087532,12.71434 -4.087532,19.72726 0,27.39594 22.240984,49.60413 49.673353,49.60413 16.106043,0 30.419692,-7.65774 39.494593,-19.52324"
       fill="#00a1e0"
       transform="matrix(1,0,0,-1,0,179.26222)"
       id="path2" />
    <path
       d="m 37.170074,75.330941 c -0.160295,-0.418954 0.05829,-0.506387 0.109293,-0.579249 0.480886,-0.349735 0.969058,-0.601108 1.460873,-0.881624 2.608443,-1.38437 5.071163,-1.788751 7.646819,-1.788751 5.24603,0 8.502941,2.790597 8.502941,7.28251 v 0.08743 c 0,4.153108 -3.675864,5.661342 -7.125858,6.750622 l -0.448099,0.145723 c -2.601156,0.845194 -4.845292,1.573809 -4.845292,3.286055 v 0.09108 c 0,1.464517 1.311508,2.542868 3.344345,2.542868 2.258707,0 4.940012,-0.750474 6.66683,-1.70496 0,0 0.506388,-0.327877 0.692185,0.163938 0.102006,0.262302 0.976345,2.615729 1.067422,2.870745 0.09836,0.276874 -0.0765,0.480886 -0.255016,0.590178 -1.970904,1.198572 -4.695926,2.018265 -7.515667,2.018265 l -0.524604,-0.0036 c -4.801575,0 -8.153206,-2.89989 -8.153206,-7.05664 v -0.08743 c 0,-4.382622 3.697723,-5.803422 7.16229,-6.794338 l 0.55739,-0.171225 c 2.524653,-0.775975 4.699569,-1.442658 4.699569,-3.22048 v -0.08743 c 0,-1.624812 -1.413513,-2.834314 -3.694079,-2.834314 -0.885268,0 -3.708653,0.01822 -6.757908,1.945403 -0.367951,0.214942 -0.582892,0.371594 -0.867052,0.542819 -0.149366,0.09472 -0.524603,0.258658 -0.688542,-0.2368 l -1.034634,-2.870745 z"
       fill="#ffffff"
       transform="matrix(1,0,0,-1,0,168.28709)"
       id="path4" />
    <path
       d="m 113.96978,75.330941 c -0.1603,-0.418954 0.0583,-0.506387 0.10929,-0.579249 0.48089,-0.349735 0.96906,-0.601108 1.46088,-0.881624 2.60844,-1.38437 5.07116,-1.788751 7.64681,-1.788751 5.24603,0 8.50294,2.790597 8.50294,7.28251 v 0.08743 c 0,4.153108 -3.67586,5.661342 -7.12585,6.750622 l -0.4481,0.145723 c -2.60116,0.845194 -4.84529,1.573809 -4.84529,3.286055 v 0.09108 c 0,1.464517 1.3115,2.542868 3.34434,2.542868 2.25871,0 4.94001,-0.750474 6.66683,-1.70496 0,0 0.50639,-0.327877 0.69219,0.163938 0.102,0.262302 0.97634,2.615729 1.06742,2.870745 0.0984,0.276874 -0.0765,0.480886 -0.25502,0.590178 -1.9709,1.198572 -4.69592,2.018265 -7.51567,2.018265 l -0.5246,-0.0036 c -4.80157,0 -8.15321,-2.89989 -8.15321,-7.05664 v -0.08743 c 0,-4.382622 3.69773,-5.803422 7.16229,-6.794338 l 0.5574,-0.171225 c 2.52465,-0.775975 4.70321,-1.442658 4.70321,-3.22048 v -0.08743 c 0,-1.624812 -1.41716,-2.834314 -3.69773,-2.834314 -0.88526,0 -3.70865,0.01822 -6.7579,1.945403 -0.36795,0.214942 -0.58654,0.364308 -0.86341,0.542819 -0.0947,0.06193 -0.53918,0.233157 -0.69219,-0.2368 l -1.03463,-2.870745 z"
       fill="#ffffff"
       transform="matrix(1,0,0,-1,0,168.28709)"
       id="path6" />
    <path
       d="m 166.39877,84.113674 c 0,-2.539224 -0.4736,-4.539273 -1.40623,-5.952787 -0.9217,-1.398942 -2.317,-2.080197 -4.2624,-2.080197 -1.94905,0 -3.33706,0.677612 -4.24418,2.080197 -0.91806,1.409871 -1.38437,3.413563 -1.38437,5.952787 0,2.535582 0.46631,4.531988 1.38437,5.93093 0.90712,1.384369 2.29513,2.058338 4.24418,2.058338 1.9454,0 3.3407,-0.673969 4.26604,-2.058338 0.92899,-1.398942 1.40259,-3.395348 1.40259,-5.93093 m 4.37898,4.706856 c -0.42989,1.453587 -1.10021,2.735951 -1.99277,3.803372 -0.89255,1.071065 -2.0219,1.930831 -3.36256,2.55744 -1.33701,0.622966 -2.9181,0.939914 -4.69228,0.939914 -1.77782,0 -3.35892,-0.316948 -4.69593,-0.939914 -1.34065,-0.626609 -2.47,-1.486375 -3.3662,-2.55744 -0.88891,-1.071065 -1.55924,-2.353428 -1.99276,-3.803372 -0.42624,-1.446302 -0.64118,-3.027397 -0.64118,-4.706856 0,-1.679458 0.21494,-3.264196 0.64118,-4.706855 0.43352,-1.449945 1.10021,-2.732308 1.9964,-3.803372 0.89256,-1.071065 2.02556,-1.927188 3.36256,-2.535582 1.34066,-0.608393 2.91811,-0.918055 4.69593,-0.918055 1.77418,0 3.35163,0.309662 4.69228,0.918055 1.33701,0.608394 2.47001,1.464517 3.36256,2.535582 0.89256,1.067421 1.56288,2.349784 1.99277,3.803372 0.42988,1.446302 0.64482,3.03104 0.64482,4.706855 0,1.675816 -0.21494,3.260554 -0.64482,4.706856"
       fill="#ffffff"
       transform="matrix(1,0,0,-1,0,168.27107)"
       id="path8" />
    <path
       d="m 206.73748,76.725143 c -0.14572,0.42624 -0.55739,0.265944 -0.55739,0.265944 -0.63754,-0.244086 -1.31515,-0.469957 -2.03648,-0.582892 -0.73226,-0.112935 -1.53738,-0.171225 -2.40079,-0.171225 -2.12027,0 -3.80337,0.630253 -5.00923,1.876185 -1.2095,1.245932 -1.88711,3.260554 -1.87982,5.985575 0.007,2.480936 0.60475,4.346191 1.67945,5.766991 1.06742,1.413514 2.69224,2.138486 4.85987,2.138486 1.80696,0 3.18405,-0.207655 4.62671,-0.66304 0,0 0.34609,-0.149366 0.51003,0.302375 0.38252,1.063779 0.66668,1.825182 1.0747,2.99461 0.11658,0.33152 -0.16758,0.4736 -0.26958,0.513673 -0.56832,0.222228 -1.90898,0.582893 -2.92175,0.735902 -0.9472,0.145723 -2.0547,0.222228 -3.28606,0.222228 -1.83975,0 -3.47914,-0.313305 -4.88172,-0.939914 -1.39894,-0.622966 -2.58658,-1.482732 -3.5265,-2.553797 -0.93991,-1.071065 -1.65395,-2.353428 -2.1312,-3.803372 -0.4736,-1.446302 -0.71404,-3.034683 -0.71404,-4.714142 0,-3.632147 0.97999,-6.568467 2.91446,-8.717883 1.93812,-2.156701 4.84894,-3.253267 8.64502,-3.253267 2.24414,0 4.54656,0.455384 6.20052,1.107495 0,0 0.31695,0.153009 0.17851,0.52096 z"
       fill="#ffffff"
       transform="matrix(1,0,0,-1,0,168.23753)"
       id="path10" />
    <path
       d="m 214.3992,86.55202 c 0.20766,1.409871 0.59747,2.582941 1.19858,3.497354 0.90712,1.388012 2.29149,2.149415 4.23689,2.149415 1.94541,0 3.23141,-0.765046 4.15311,-2.149415 0.61204,-0.914413 0.87798,-2.138487 0.98363,-3.497354 z m 14.74354,3.100258 c -0.3716,1.402585 -1.2933,2.819742 -1.89805,3.468209 -0.95448,1.027348 -1.88711,1.745034 -2.81245,2.145773 -1.2095,0.517317 -2.65945,0.859766 -4.24783,0.859766 -1.85068,0 -3.53014,-0.309662 -4.89265,-0.950843 -1.36616,-0.641182 -2.51373,-1.51552 -3.41357,-2.6048 -0.89984,-1.085637 -1.57745,-2.378929 -2.00733,-3.847089 -0.43353,-1.460874 -0.65211,-3.052899 -0.65211,-4.732357 0,-1.708603 0.22587,-3.300628 0.67397,-4.732357 0.45174,-1.442658 1.17307,-2.714092 2.14941,-3.766942 0.9727,-1.060135 2.22592,-1.890756 3.72687,-2.470006 1.49002,-0.575606 3.30063,-0.874338 5.38082,-0.870695 4.28062,0.01457 6.53568,0.969059 7.46467,1.482732 0.16394,0.09108 0.32059,0.251373 0.12386,0.7104 l -0.96905,2.714092 c -0.14573,0.404382 -0.5574,0.255016 -0.5574,0.255016 -1.06013,-0.393452 -2.56836,-1.100209 -6.08393,-1.092923 -2.29879,0.0036 -4.00375,0.681255 -5.07117,1.741391 -1.09656,1.085636 -1.6321,2.681304 -1.72682,4.932726 l 14.82368,-0.01457 c 0,0 0.38981,0.0073 0.42989,0.386166 0.0146,0.160296 0.51003,3.045613 -0.44081,6.386314 z"
       fill="#ffffff"
       transform="matrix(1,0,0,-1,0,168.27693)"
       id="path12" />
    <path
       d="m 95.68299,86.55202 c 0.211299,1.409871 0.597465,2.582941 1.198572,3.497354 0.907127,1.388012 2.291496,2.149415 4.236898,2.149415 1.9454,0 3.23141,-0.765046 4.15675,-2.149415 0.6084,-0.914413 0.87434,-2.138487 0.97999,-3.497354 z m 14.73989,3.100258 c -0.3716,1.402585 -1.28965,2.819742 -1.8944,3.468209 -0.95449,1.027348 -1.88712,1.745034 -2.81246,2.145773 -1.2095,0.517317 -2.65944,0.859766 -4.24782,0.859766 -1.847044,0 -3.530145,-0.309662 -4.892656,-0.950843 -1.366154,-0.641182 -2.513723,-1.51552 -3.413563,-2.6048 -0.89984,-1.085637 -1.577452,-2.378929 -2.007336,-3.847089 -0.429883,-1.460874 -0.65211,-3.052899 -0.65211,-4.732357 0,-1.708603 0.22587,-3.300628 0.673969,-4.732357 0.451742,-1.442658 1.173071,-2.714092 2.149415,-3.766942 0.972702,-1.060135 2.22592,-1.890756 3.726868,-2.470006 1.490018,-0.575606 3.300623,-0.874338 5.380823,-0.870695 4.28062,0.01457 6.53568,0.969059 7.46467,1.482732 0.16393,0.09108 0.32059,0.251373 0.12386,0.7104 l -0.96541,2.714092 c -0.14937,0.404382 -0.56104,0.255016 -0.56104,0.255016 -1.06013,-0.393452 -2.56472,-1.100209 -6.08758,-1.092923 -2.29514,0.0036 -4.000098,0.681255 -5.06752,1.741391 -1.096566,1.085636 -1.632098,2.681304 -1.726818,4.932726 l 14.823678,-0.01457 c 0,0 0.38981,0.0073 0.42988,0.386166 0.0146,0.160296 0.51003,3.045613 -0.44445,6.386314 z"
       fill="#ffffff"
       transform="matrix(1,0,0,-1,0,168.27693)"
       id="path14" />
    <path
       d="m 63.641764,76.818774 c -0.579249,0.462671 -0.659397,0.579249 -0.856123,0.877981 -0.291446,0.455385 -0.440813,1.103853 -0.440813,1.927188 0,1.304222 0.429884,2.240492 1.322437,2.870745 -0.01093,-0.0036 1.275077,1.111138 4.298831,1.071064 2.123914,-0.02914 4.021957,-0.342449 4.021957,-0.342449 v -6.739692 h 0.0036 c 0,0 -1.883471,-0.404382 -4.003742,-0.531889 -3.016467,-0.182154 -4.357119,0.870695 -4.34619,0.867052 m 5.898141,10.415557 c -0.601107,0.04372 -1.380726,0.06922 -2.313354,0.06922 -1.271433,0 -2.49915,-0.160295 -3.650363,-0.469957 -1.158498,-0.309661 -2.200418,-0.794191 -3.096615,-1.435372 -0.89984,-0.644825 -1.624812,-1.46816 -2.149415,-2.444505 -0.524603,-0.976344 -0.790548,-2.127557 -0.790548,-3.417206 0,-1.311507 0.225871,-2.451791 0.677612,-3.384418 0.451742,-0.936271 1.103853,-1.715889 1.934474,-2.316997 0.823336,-0.601108 1.839754,-1.04192 3.020111,-1.307865 1.162141,-0.265944 2.480935,-0.400738 3.923594,-0.400738 1.519163,0 3.034683,0.123864 4.502843,0.375237 1.453587,0.247729 3.238695,0.608394 3.734153,0.721329 0.491816,0.116578 1.038277,0.265945 1.038277,0.265945 0.367951,0.09108 0.338807,0.484529 0.338807,0.484529 l -0.0073,13.555889 c 0,2.972751 -0.79419,5.176812 -2.35707,6.542966 -1.555594,1.362511 -3.847089,2.051052 -6.808911,2.051052 -1.111138,0 -2.899889,-0.153009 -3.970954,-0.367951 0,0 -3.238695,-0.626609 -4.572061,-1.668529 0,0 -0.291446,-0.182154 -0.131151,-0.590178 l 1.049206,-2.819742 c 0.131151,-0.364307 0.484529,-0.240443 0.484529,-0.240443 0,0 0.112936,0.04372 0.244086,0.120222 2.85253,1.55195 6.459176,1.504591 6.459176,1.504591 1.602954,0 2.834314,-0.320591 3.664935,-0.95813 0.808763,-0.619323 1.220431,-1.555593 1.220431,-3.530141 V 86.94653 c -1.275077,0.182153 -2.444505,0.287803 -2.444505,0.287803"
       fill="#ffffff"
       transform="matrix(1,0,0,-1,0,168.24993)"
       id="path16" />
    <path
       d="m 189.09913,94.658974 c 0.11294,0.335164 -0.12386,0.495459 -0.22222,0.53189 -0.25138,0.09836 -1.51188,0.364307 -2.48458,0.42624 -1.86162,0.112935 -2.89625,-0.200369 -3.82159,-0.61568 -0.91806,-0.415311 -1.93812,-1.085637 -2.50644,-1.84704 v 1.803323 c 0,0.251372 -0.17851,0.451741 -0.42624,0.451741 h -3.79973 c -0.24773,0 -0.42624,-0.200369 -0.42624,-0.451741 V 72.847873 c 0,-0.247729 0.20402,-0.451741 0.45174,-0.451741 h 3.89445 c 0.24773,0 0.4481,0.204012 0.4481,0.451741 v 11.045809 c 0,1.482733 0.16394,2.961822 0.49182,3.890806 0.32059,0.918056 0.75776,1.653957 1.29693,2.182203 0.54282,0.524604 1.1585,0.892554 1.83247,1.10021 0.68854,0.211298 1.44995,0.280517 1.98912,0.280517 0.77598,0 1.62846,-0.20037 1.62846,-0.20037 0.28416,-0.03279 0.44445,0.14208 0.53917,0.400739 0.25502,0.677612 0.97635,2.706806 1.11478,3.111187"
       fill="#ffffff"
       transform="matrix(1,0,0,-1,0,168.0365)"
       id="path18" />
    <path
       d="m 152.54377,105.76157 c -0.4736,0.14573 -0.90349,0.24409 -1.46452,0.34974 -0.56832,0.10201 -1.24593,0.15301 -2.01462,0.15301 -2.68131,0 -4.79429,-0.75776 -6.27702,-2.25142 -1.47545,-1.48638 -2.4773,-3.74873 -2.98004,-6.725123 l -0.18215,-1.001846 h -3.36621 c 0,0 -0.40802,0.01457 -0.49546,-0.429883 l -0.5501,-3.085686 c -0.0401,-0.291446 0.0874,-0.477243 0.48089,-0.477243 h 3.27512 l -3.32248,-18.550548 c -0.25866,-1.493661 -0.55739,-2.721378 -0.88891,-3.654005 -0.32424,-0.918056 -0.64119,-1.606597 -1.03464,-2.109342 -0.37888,-0.480886 -0.7359,-0.837908 -1.35522,-1.045563 -0.51003,-0.171225 -1.10021,-0.251372 -1.74504,-0.251372 -0.35702,0 -0.83426,0.05829 -1.18764,0.13115 -0.34974,0.06922 -0.53553,0.145723 -0.80148,0.258659 0,0 -0.38252,0.145723 -0.53553,-0.2368 -0.12022,-0.316948 -0.99456,-2.717735 -1.10021,-3.012825 -0.102,-0.295089 0.0437,-0.524603 0.22952,-0.593821 0.43716,-0.15301 0.7614,-0.255016 1.35522,-0.397096 0.82334,-0.193083 1.51916,-0.204012 2.17127,-0.204012 1.36251,0 2.60845,0.193083 3.63944,0.564677 1.03463,0.375237 1.93811,1.027348 2.73959,1.908972 0.86341,0.954486 1.40623,1.952689 1.92355,3.318843 0.51367,1.347939 0.95448,3.023754 1.30422,4.976443 l 3.3407,18.89664 h 4.88172 c 0,0 0.41167,-0.01457 0.49546,0.433526 l 0.55375,3.082043 c 0.0364,0.295089 -0.0874,0.477243 -0.48453,0.477243 h -4.73964 c 0.0255,0.105649 0.24044,1.774179 0.78326,3.344345 0.23315,0.666684 0.67032,1.209504 1.03827,1.581094 0.36431,0.36431 0.78327,0.62297 1.24229,0.77233 0.46996,0.15301 1.00549,0.22587 1.59203,0.22587 0.44445,0 0.88527,-0.051 1.21679,-0.12022 0.45902,-0.0984 0.63753,-0.14936 0.75776,-0.18579 0.48453,-0.14573 0.5501,-0.004 0.64482,0.22951 l 1.133,3.11119 c 0.11658,0.33516 -0.17123,0.47724 -0.27323,0.51731"
       fill="#ffffff"
       transform="matrix(1,0,0,-1,0,168.89186)"
       id="path20" />
    <path
       d="m 86.321741,63.553237 c 0,-0.247729 -0.178511,-0.448098 -0.42624,-0.448098 h -3.93088 c -0.247729,0 -0.422597,0.200369 -0.422597,0.448098 v 31.63648 c 0,0.247729 0.174868,0.448098 0.422597,0.448098 h 3.93088 c 0.247729,0 0.42624,-0.200369 0.42624,-0.448098 z"
       fill="#ffffff"
       transform="matrix(1,0,0,-1,0,158.74295)"
       id="path22" />
  </g>
</svg>
